<mxfile host="app.diagrams.net" modified="2024-01-12T09:20:22.038Z" agent="Mozilla/5.0 (X11; Linux x86_64) AppleWebKit/537.36 (KHTML, like Gecko) Chrome/118.0.0.0 Safari/537.36" version="22.1.7" etag="6dodwo8VE7ruwjxpxCcJ" type="github">
  <diagram name="Page-1" id="N928mLb4HSsAglsMe5H8">
    <mxGraphModel>
      <root>
        <mxCell id="0" />
        <mxCell id="1" parent="0" />
      </root>
    </mxGraphModel>
  </diagram>
</mxfile>
